<?xml version="1.0" standalone="no"?>
<!DOCTYPE svg PUBLIC "-//W3C//DTD SVG 20010904//EN"
 "http://www.w3.org/TR/2001/REC-SVG-20010904/DTD/svg10.dtd">
<svg version="1.0" xmlns="http://www.w3.org/2000/svg"
 width="600.000000pt" height="363.000000pt" viewBox="0 0 600.000000 363.000000"
 preserveAspectRatio="xMidYMid meet">
<style>
    .logo-content { fill: #000000; }
    @media (prefers-color-scheme: dark) {
        .logo-content { fill: #ffffff; }
    }
</style>
<g class="logo-content" transform="translate(0.000000,363.000000) scale(0.100000,-0.100000)"
stroke="none">
<path d="M1582 2690 l3 -935 80 -100 c61 -75 88 -101 110 -105 24 -4 35 -18
70 -87 23 -46 45 -86 49 -90 15 -15 -7 103 -25 135 -11 18 -19 35 -19 38 0 2
23 4 50 4 28 0 50 2 50 5 0 2 -72 94 -160 204 l-160 199 0 811 0 811 230 0
230 0 -2 -400 c-2 -220 0 -399 4 -398 3 2 90 82 192 178 l186 175 0 223 0 222
230 0 230 0 0 -318 0 -318 -257 -244 c-142 -134 -259 -247 -261 -251 -2 -4
114 -121 257 -260 l261 -254 0 -197 c0 -183 1 -197 19 -203 10 -3 26 -14 36
-25 18 -20 18 -20 42 2 l23 21 0 1024 0 1023 645 0 645 0 0 -390 0 -390 -229
0 -228 0 -2 167 c-1 92 -3 169 -5 170 -2 2 -86 2 -187 1 l-184 -3 5 -743 5
-743 182 227 c175 216 183 228 183 270 l0 44 -155 0 -155 0 0 225 0 225 385 0
385 0 0 -353 0 -352 -150 -183 c-82 -101 -152 -187 -155 -192 -4 -6 40 -10
114 -10 l119 0 71 89 71 89 0 948 0 949 -704 -3 -704 -2 -4 -49 c-1 -27 0 -47
5 -44 4 2 7 -8 7 -24 3 -373 -2 -739 -12 -750 -6 -7 -13 -11 -16 -8 -10 10
-56 -27 -152 -121 -229 -224 -273 -264 -285 -254 -7 5 -15 6 -19 2 -4 -4 -6 0
-4 8 2 8 -3 14 -10 12 -8 -1 -11 2 -8 7 4 5 -3 16 -15 25 -27 19 -23 24 100
141 51 50 121 117 155 150 34 33 80 75 103 94 23 19 40 38 37 43 -3 4 0 8 5 8
13 0 40 26 64 60 15 22 17 58 17 313 0 159 4 296 9 305 5 9 6 31 4 49 l-5 32
-279 3 -279 3 0 -232 0 -231 -126 -119 c-69 -65 -128 -119 -132 -120 -4 -2 -7
140 -7 315 0 174 -4 333 -8 352 l-7 35 -281 0 -280 0 3 -935z m2242 404 c13
-5 16 -22 16 -85 l0 -79 -122 0 c-68 0 -133 -3 -145 -6 -23 -6 -23 -5 -23 78
0 47 3 88 7 91 8 9 246 9 267 1z m8 -304 l3 -100 -127 0 -128 0 0 100 0 100
124 0 125 0 3 -100z m538 -75 c0 -30 -5 -57 -12 -61 -6 -4 -8 -3 -5 3 12 19
-34 23 -260 23 l-223 0 0 43 0 42 224 -3 c140 -3 231 0 242 6 28 16 34 6 34
-53z m-1372 -603 c-2 -160 0 -292 5 -292 9 0 10 -254 0 -263 -3 -4 -12 -2 -20
4 -16 14 -19 233 -3 275 6 14 7 48 4 75 -6 48 -11 54 -190 231 -101 100 -189
185 -194 188 -6 4 28 44 77 91 48 46 140 134 203 196 l115 112 3 -162 c1 -89
1 -294 0 -455z m707 38 l130 -5 -3 -25 c-1 -13 -6 -27 -11 -30 -4 -3 -30 -32
-56 -65 -26 -33 -50 -62 -51 -64 -2 -2 -19 4 -37 14 -31 16 -57 17 -107 4 -12
-3 -15 13 -18 94 -2 79 0 97 10 90 7 -4 72 -10 143 -13z m-48 -239 c-20 -22
-43 -51 -52 -65 -10 -14 -20 -26 -24 -26 -3 0 -4 29 -3 65 l4 65 55 0 55 0
-35 -39z m712 -89 l2 -79 -51 -63 c-27 -35 -50 -66 -50 -70 0 -13 -51 -30 -90
-30 -73 0 -74 6 -15 77 30 37 52 70 49 75 -3 5 -1 7 4 6 5 -2 26 17 46 42 20
25 50 60 66 79 16 18 27 38 23 44 -3 5 -2 7 4 4 6 -4 11 -42 12 -85z m-2663
-24 c33 -40 69 -83 82 -96 30 -32 72 -98 72 -116 0 -8 -7 -16 -14 -19 -25 -10
-73 21 -118 75 -24 29 -52 62 -63 74 -25 27 -28 36 -33 108 -2 36 0 56 6 52 5
-3 36 -38 68 -78z"/>
<path d="M2083 2096 c4 -10 7 -136 7 -281 0 -281 0 -281 50 -268 20 5 21 10
18 124 -2 66 0 118 4 117 4 -2 63 -56 132 -120 77 -73 132 -118 145 -118 20 0
21 5 21 108 l0 107 -181 170 c-100 94 -186 172 -192 174 -6 2 -7 -3 -4 -13z
m220 -239 l111 -107 4 -59 c5 -73 -8 -83 -50 -42 -18 17 -36 31 -40 31 -5 0
-6 5 -3 10 3 6 2 10 -2 10 -5 0 -38 27 -73 61 -55 51 -69 59 -92 55 l-28 -5 0
100 0 100 31 -23 c17 -13 81 -71 142 -131z"/>
<path d="M15 1443 c-4 -54 -8 -105 -8 -113 0 -8 7 -32 17 -53 20 -40 20 -40
71 4 45 39 46 34 45 -130 -1 -139 -3 -157 -22 -184 l-21 -29 21 -37 21 -36
325 -3 c180 -1 326 0 326 2 0 2 -12 27 -26 54 -14 28 -24 58 -21 69 3 14 6 12
16 -12 6 -16 22 -49 34 -72 l22 -43 187 0 187 0 -15 28 c-17 32 -17 49 -4 88
10 28 13 29 68 27 42 -1 56 -5 53 -15 -13 -43 -11 -61 9 -93 l22 -35 209 0
c115 0 209 2 209 4 0 3 -9 20 -20 39 -18 30 -20 49 -18 128 l3 93 33 -86 c18
-48 44 -107 58 -132 l26 -46 301 0 c166 0 319 4 339 9 22 5 38 5 38 0 0 -5 74
-9 165 -9 91 0 165 2 165 6 0 3 -11 22 -25 42 -19 28 -25 50 -25 89 l0 53 73
0 c39 0 86 4 104 9 29 8 32 7 38 -17 11 -46 76 -143 109 -163 27 -16 51 -19
176 -19 80 0 160 4 177 9 20 6 35 6 38 0 4 -5 80 -9 170 -9 l164 0 -24 43
c-14 23 -25 56 -24 72 0 30 0 30 17 -10 10 -22 24 -55 32 -72 l14 -33 299 0
299 0 -26 44 c-25 44 -26 49 -26 225 l0 181 35 -4 c19 -3 54 -19 76 -37 l41
-33 -6 30 c-3 16 -10 66 -16 112 -6 52 -18 97 -32 122 l-23 40 -237 0 c-232 0
-238 0 -238 -20 0 -20 -1 -20 -27 -3 -24 16 -58 18 -272 21 -221 3 -243 2
-232 -12 17 -20 11 -20 -25 -1 -22 11 -65 15 -177 15 -160 0 -199 -9 -233 -52
l-19 -25 -19 25 c-38 50 -57 52 -453 52 -216 0 -383 -4 -403 -10 -23 -7 -36
-7 -38 0 -5 14 -212 13 -212 0 0 -6 7 -24 15 -41 12 -22 15 -54 13 -122 l-3
-92 -29 75 c-16 41 -42 101 -59 133 l-30 57 -153 0 c-85 0 -154 -2 -154 -5 0
-3 8 -18 17 -32 15 -22 19 -55 21 -183 2 -85 2 -153 -1 -150 -3 3 -24 64 -47
135 -23 72 -54 154 -68 183 l-26 52 -142 0 -142 0 20 -37 20 -38 -51 -130 -50
-130 -1 76 c0 67 -4 85 -35 147 -58 114 -20 107 -532 110 l-441 3 -7 -98z
m871 66 c64 -16 77 -42 82 -153 4 -100 -7 -145 -38 -153 -11 -3 -20 -8 -20
-12 0 -3 15 -46 33 -94 l34 -88 16 38 c9 21 34 85 56 143 22 58 56 145 75 194
31 83 33 92 19 113 l-15 23 115 0 114 0 61 -177 c33 -98 70 -209 82 -248 12
-38 27 -74 32 -80 11 -12 6 463 -6 488 -8 16 1 17 121 17 l130 0 76 -192 77
-193 0 168 c0 138 -3 172 -16 192 l-16 25 82 0 82 0 -16 -25 c-14 -21 -16 -61
-16 -280 l0 -255 -119 0 -119 0 -72 183 c-40 100 -74 184 -77 187 -7 8 3 -334
11 -355 7 -20 3 -20 -173 -17 l-180 3 11 24 c8 18 8 36 -2 70 l-13 45 -86 0
-87 0 -17 -46 c-12 -33 -14 -51 -7 -64 6 -10 10 -22 10 -27 0 -4 -73 -7 -163
-5 l-163 3 -38 114 c-26 81 -42 115 -53 115 -13 0 -15 -15 -11 -100 2 -60 9
-105 16 -112 7 -7 12 -14 12 -17 0 -4 -54 -5 -120 -3 -109 3 -138 10 -110 27
6 4 10 80 10 195 0 184 -1 189 -22 204 -12 9 -42 16 -66 16 l-43 0 3 -207 c2
-115 6 -215 11 -223 6 -13 -9 -15 -114 -12 -109 3 -119 5 -107 19 10 12 13 68
15 220 l1 203 -47 0 c-35 0 -53 -5 -66 -20 -10 -11 -21 -20 -24 -20 -5 0 11
142 18 158 1 1 179 2 397 2 262 0 410 -4 440 -11z m1598 -36 c4 -27 9 -61 12
-76 l6 -29 -31 16 c-21 12 -59 16 -131 16 l-100 0 0 -25 c0 -25 1 -25 90 -25
151 0 170 -21 170 -183 0 -114 -11 -163 -44 -189 -18 -15 -46 -18 -202 -18
l-181 0 -7 53 c-4 28 -10 62 -13 75 l-5 23 33 -20 c28 -17 51 -21 132 -21 l97
0 0 30 0 30 -100 0 c-95 0 -103 2 -126 25 -25 25 -25 27 -22 165 3 130 4 140
27 164 30 32 36 33 227 35 l162 1 6 -47z m458 28 c44 -22 51 -51 49 -199 -1
-89 -2 -95 -30 -123 -29 -28 -32 -29 -135 -29 l-106 0 0 -79 c0 -59 4 -84 16
-95 8 -9 14 -16 12 -16 -2 -1 -58 -2 -126 -3 -105 -2 -121 0 -116 13 19 45 24
103 23 268 -1 171 -6 220 -24 265 -7 18 2 18 201 15 151 -2 217 -7 236 -17z
m505 -7 c44 -33 54 -92 51 -284 -4 -181 -13 -215 -63 -238 -17 -8 -84 -12
-190 -12 l-165 0 -30 28 c-41 37 -49 88 -43 275 5 168 13 208 46 230 36 24 54
26 214 24 137 -2 154 -4 180 -23z m510 0 c15 -12 29 -30 31 -40 8 -47 17 -45
22 6 l5 55 217 3 216 2 7 -52 c3 -29 9 -66 12 -82 l5 -29 -30 22 c-19 13 -45
21 -71 21 l-41 0 0 -204 c0 -173 2 -207 16 -220 14 -15 4 -16 -112 -16 -116 0
-125 1 -113 17 11 12 15 66 18 220 l3 203 -46 0 c-26 0 -58 -7 -71 -16 -22
-15 -25 -23 -25 -81 0 -59 -3 -68 -29 -92 l-28 -27 37 -97 c21 -54 44 -104 51
-113 11 -13 -1 -14 -101 -12 l-114 3 -37 110 c-46 139 -68 152 -62 38 4 -93 8
-123 17 -143 5 -13 -11 -15 -114 -15 -104 0 -119 2 -113 15 5 8 9 125 11 259
2 210 1 247 -13 268 l-17 25 220 -4 c206 -3 222 -4 249 -24z m-3865 -164 c-13
-10 -30 -16 -38 -13 -12 4 -12 7 3 19 10 7 27 13 38 13 19 0 19 -1 -3 -19z
m378 -166 c0 -114 -4 -153 -16 -180 -9 -19 -20 -37 -25 -40 -5 -3 -9 76 -9
180 l0 186 25 0 25 0 0 -146z m3641 -14 c-2 -120 -5 -157 -18 -176 -17 -26
-33 -32 -33 -11 0 8 -11 41 -25 75 l-25 61 25 25 c22 22 25 34 25 90 0 55 3
67 22 80 12 9 24 14 26 11 2 -2 3 -72 3 -155z m-3111 32 c0 -24 -8 -32 -26
-25 -10 4 -11 10 -3 24 12 24 29 25 29 1z m1490 -247 c5 3 12 -4 15 -15 5 -17
10 -19 21 -9 8 7 14 7 14 1 0 -14 -24 -22 -40 -12 -7 5 -28 6 -45 3 -20 -3
-35 0 -40 7 -5 9 -4 11 3 6 7 -4 12 -2 12 5 0 7 3 10 6 6 4 -3 14 1 22 10 11
10 17 12 20 4 2 -6 7 -9 12 -6z m1096 -26 c83 -6 80 -6 -38 -5 -71 0 -128 3
-128 6 0 3 12 12 28 21 24 14 28 14 38 0 8 -11 39 -17 100 -22z m-1507 13 c8
-16 6 -17 -25 -14 -19 2 -34 8 -34 14 0 5 4 7 8 4 4 -2 14 -1 22 5 19 11 18
12 29 -9z"/>
<path d="M680 1350 l0 -50 45 0 45 0 0 50 0 50 -45 0 -45 0 0 -50z"/>
<path d="M1204 1313 c-3 -10 -12 -35 -20 -56 -8 -20 -14 -40 -14 -42 0 -3 18
-5 40 -5 45 0 46 3 24 71 -18 54 -22 58 -30 32z"/>
<path d="M2720 1330 l0 -70 40 0 40 0 0 70 0 70 -40 0 -40 0 0 -70z"/>
<path d="M3200 1235 l0 -165 50 0 50 0 0 165 0 165 -50 0 -50 0 0 -165z m80
-35 c0 -67 -4 -110 -10 -110 -6 0 -10 43 -10 110 0 67 4 110 10 110 6 0 10
-43 10 -110z"/>
<path d="M3715 1350 l0 -50 46 0 47 0 -1 50 -1 50 -45 0 -46 0 0 -50z"/>
<path d="M4665 1500 c25 -39 25 -41 25 -273 0 -221 -1 -236 -20 -260 l-21 -26
21 -41 21 -40 437 2 c341 2 437 6 438 16 1 6 2 14 3 17 0 3 16 -4 34 -15 28
-18 50 -20 198 -20 l165 0 13 105 c11 102 11 106 -11 144 l-22 39 -37 -25
c-23 -15 -58 -26 -93 -30 l-56 -6 0 110 0 110 83 -5 c58 -3 90 -10 109 -23 14
-11 28 -19 30 -19 10 0 -30 210 -47 243 l-19 37 -160 0 c-256 0 -269 -13 -274
-272 -4 -185 -1 -178 -80 -178 l-33 0 3 154 c3 142 5 157 26 185 l23 31 -23
40 -23 40 -162 0 c-90 0 -163 -1 -163 -2 0 -2 11 -25 25 -52 24 -46 25 -59 25
-206 0 -180 0 -180 -81 -188 l-50 -5 3 161 c3 152 4 162 26 185 l24 25 -24 41
-23 41 -168 0 -167 0 25 -40z m259 -7 c-11 -22 -14 -74 -14 -227 l0 -198 84 3
c131 6 128 1 124 230 -2 139 -6 190 -17 202 -12 16 -3 17 113 17 l127 0 -15
-22 c-13 -19 -16 -58 -16 -225 l0 -203 69 0 c124 0 118 -8 123 182 5 257 15
266 254 267 l141 1 7 -61 c4 -33 10 -67 13 -76 5 -13 2 -13 -26 1 -23 13 -53
16 -113 14 l-81 -3 1 -155 c1 -85 1 -158 2 -162 0 -15 154 -8 184 7 16 9 31
14 33 11 2 -2 1 -33 -3 -70 l-7 -66 -159 0 c-175 0 -205 8 -225 59 -10 24 -11
23 -12 -16 l-1 -43 -411 0 c-381 0 -410 1 -398 17 21 25 26 443 6 501 l-15 42
124 0 123 0 -15 -27z m625 -560 c23 -6 23 -7 5 -14 -29 -11 -64 -10 -64 2 0 5
5 7 10 4 6 -3 10 -1 10 4 0 13 6 13 39 4z"/>
<path d="M2952 1042 c-22 -3 -22 -3 -24 -348 l-3 -345 -199 247 c-109 135
-208 249 -218 253 -11 4 -34 5 -50 3 l-30 -5 7 -79 7 -80 111 -136 c61 -76
138 -171 172 -212 33 -41 109 -135 169 -207 59 -73 109 -133 110 -133 4 0 49
56 405 493 155 192 281 350 279 352 -5 6 -228 9 -233 4 -7 -8 -154 -188 -284
-348 l-116 -145 -5 280 -5 279 -36 65 c-29 53 -40 64 -57 62z m58 -392 c0
-282 5 -307 54 -303 29 2 49 22 160 158 36 44 73 89 83 100 59 65 101 124 95
130 -4 5 -1 5 6 1 6 -4 12 -4 12 1 0 17 56 71 75 73 11 1 42 2 69 1 l49 -1
-27 -32 c-14 -18 -53 -67 -85 -108 -32 -41 -67 -85 -77 -96 -11 -12 -32 -39
-49 -59 -16 -21 -55 -68 -85 -105 -30 -36 -68 -84 -85 -105 -16 -21 -39 -48
-50 -60 -11 -13 -49 -59 -85 -104 l-65 -81 -25 30 c-14 17 -45 56 -70 87 -25
31 -52 64 -60 72 -8 9 -28 34 -44 56 -16 21 -48 59 -70 85 -46 52 -85 99 -124
150 -15 19 -37 44 -49 57 -12 13 -19 23 -15 23 4 1 -2 8 -14 18 -34 28 -52 64
-57 114 -7 56 4 67 39 39 15 -12 23 -21 19 -21 -4 0 4 -11 19 -25 14 -13 26
-26 26 -29 0 -6 30 -41 80 -93 19 -20 28 -33 20 -28 -8 5 -4 -5 10 -22 14 -17
29 -28 34 -25 5 3 6 0 3 -5 -4 -6 0 -16 8 -23 8 -7 44 -50 80 -95 37 -46 73
-86 82 -89 19 -8 53 2 54 15 1 5 2 13 3 18 0 5 4 13 9 17 4 4 7 130 7 279 0
149 3 275 7 279 4 3 13 -4 20 -16 9 -17 12 -92 13 -278z"/>
</g>
</svg>
